<svg width="596" height="596" viewBox="0 0 596 596" fill="none" xmlns="http://www.w3.org/2000/svg">
<path d="M571.167 173.833C527.394 171.425 483.968 182.803 447 206.365C438.06 196.183 428.872 186.002 419.187 176.317L411.985 169.612L415.462 166.632C427.606 156.207 436.26 142.308 440.257 126.81C444.253 111.312 443.4 94.961 437.812 79.9634C429.739 63.0315 416.923 48.8083 400.92 39.0216C384.917 29.2349 366.417 24.3059 347.667 24.8334V74.5C356.502 74.377 365.211 76.6135 372.894 80.9789C380.577 85.3442 386.956 91.6802 391.373 99.3334C395.595 109.267 391.373 120.193 379.702 131.865L373.99 137.08C348.087 115.496 319.65 97.1499 289.308 82.4467C226.48 54.1367 194.197 67.2984 178.303 82.4467C173.46 87.3013 169.584 93.0318 166.88 99.3334L162.41 112.495L126.65 220.272C154.96 290.798 223.5 416.207 372.5 470.343L496.667 429.12C500.854 427.561 504.543 424.902 507.345 421.422L512.56 416.952C548.072 381.192 525.225 312.403 477.545 245.602C505.856 229.079 538.455 221.383 571.167 223.5V173.833ZM477.048 381.688H475.558C458.423 390.877 387.4 367.533 306.94 287.073C298.497 278.63 290.55 270.435 283.348 262.24C280.865 259.508 278.63 256.528 276.147 253.548L262.985 237.655L256.032 227.97C252.555 223.252 249.078 218.533 246.098 214.063C243.118 209.593 242.125 207.607 240.138 204.378C238.152 201.15 234.675 195.935 232.44 191.713C230.205 187.492 229.212 185.753 227.722 182.525C226.232 179.297 223.5 175.572 222.01 172.095C220.52 168.618 219.775 166.383 218.533 163.652C217.292 160.92 215.802 156.947 214.808 153.718C213.815 150.49 213.567 149 213.07 146.517C212.573 144.033 211.58 140.557 211.083 138.073C210.964 136.088 210.964 134.098 211.083 132.113C210.839 129.968 210.839 127.802 211.083 125.657L213.815 117.958C218.037 113.488 236.413 112.247 269.193 127.147C291.1 137.671 311.828 150.49 331.028 165.39C320.561 170.01 309.4 172.863 298 173.833V223.5C324.382 222.003 349.981 213.982 372.5 200.157L384.668 211.58C395.595 222.258 405.28 232.937 414.22 243.118C399.247 268.65 393.299 298.478 397.333 327.8L447 318.115C445.322 308.753 445.322 299.167 447 289.805C479.035 338.727 484.995 373.99 477.048 381.688ZM109.267 273.167L53.8883 439.55C49.8913 451.766 48.8419 464.754 50.8258 477.453C52.8096 490.152 57.7705 502.201 65.3028 512.615C72.8352 523.03 82.7251 531.514 94.1643 537.374C105.603 543.234 118.267 546.305 131.12 546.333C139.569 546.251 147.952 544.826 155.953 542.112L317.867 488.223C226.483 441.553 153.131 365.93 109.267 273.167Z" fill="#134DE2"/>
</svg>
