<svg width="168" height="168" viewBox="0 0 168 168" fill="none" xmlns="http://www.w3.org/2000/svg">
<path d="M61.0833 167.333L57.75 140.667C55.9444 139.972 54.2444 139.139 52.65 138.167C51.0556 137.194 49.4917 136.153 47.9583 135.042L23.1667 145.458L0.25 105.875L21.7083 89.625C21.5694 88.6528 21.5 87.7167 21.5 86.8167V81.1917C21.5 80.2861 21.5694 79.3472 21.7083 78.375L0.25 62.125L23.1667 22.5417L47.9583 32.9584C49.4861 31.8472 51.0833 30.8056 52.75 29.8334C54.4167 28.8611 56.0833 28.0278 57.75 27.3334L61.0833 0.666687H106.917L110.25 27.3334C112.056 28.0278 113.758 28.8611 115.358 29.8334C116.958 30.8056 118.519 31.8472 120.042 32.9584L144.833 22.5417L167.75 62.125L146.292 78.375C146.431 79.3472 146.5 80.2861 146.5 81.1917V86.8083C146.5 87.7139 146.361 88.6528 146.083 89.625L167.542 105.875L144.625 145.458L120.042 135.042C118.514 136.153 116.917 137.194 115.25 138.167C113.583 139.139 111.917 139.972 110.25 140.667L106.917 167.333H61.0833ZM84.4167 113.167C92.4722 113.167 99.3472 110.319 105.042 104.625C110.736 98.9306 113.583 92.0556 113.583 84C113.583 75.9445 110.736 69.0695 105.042 63.375C99.3472 57.6806 92.4722 54.8334 84.4167 54.8334C76.2222 54.8334 69.3111 57.6806 63.6833 63.375C58.0556 69.0695 55.2444 75.9445 55.25 84C55.25 92.0556 58.0639 98.9306 63.6917 104.625C69.3194 110.319 76.2278 113.167 84.4167 113.167Z" fill="#134DE2"/>
</svg>
